<svg xmlns="http://www.w3.org/2000/svg" width="30" height="30" fill="none"><path fill="#096FFA" fill-rule="evenodd" d="M15 27.5c6.904 0 12.5-5.597 12.5-12.5 0-6.904-5.596-12.5-12.5-12.5S2.5 8.096 2.5 15c0 6.903 5.596 12.5 12.5 12.5Zm3.03-18.605c-.79-.036-1.027-.044-3.03-.044s-2.24.008-3.03.044c-.732.033-1.129.156-1.393.258-.35.136-.6.299-.863.561a2.323 2.323 0 0 0-.56.863c-.103.264-.226.661-.259 1.392-.036.791-.044 1.028-.044 3.031s.008 2.24.044 3.03c.033.732.156 1.129.258 1.393.136.35.299.6.561.863.263.262.513.425.863.56.264.103.661.226 1.392.259.791.036 1.028.044 3.031.044s2.24-.008 3.03-.044c.732-.034 1.129-.156 1.393-.258.35-.136.6-.299.863-.561.262-.263.425-.513.56-.863.103-.264.226-.661.259-1.392.036-.791.044-1.028.044-3.031s-.008-2.24-.044-3.03c-.033-.732-.156-1.129-.258-1.393-.136-.35-.299-.6-.561-.863a2.324 2.324 0 0 0-.863-.56c-.264-.103-.661-.226-1.392-.259Zm-6.122-1.35c.8-.036 1.055-.045 3.092-.045s2.292.009 3.092.045c.799.037 1.344.163 1.82.349.494.191.912.448 1.33.865.416.417.673.835.864 1.328.186.477.313 1.023.349 1.82.036.8.045 1.056.045 3.093s-.009 2.292-.045 3.092c-.036.799-.163 1.344-.349 1.82a3.677 3.677 0 0 1-.865 1.33 3.676 3.676 0 0 1-1.328.864c-.477.186-1.023.312-1.82.349-.8.036-1.056.045-3.093.045s-2.292-.009-3.092-.045c-.798-.037-1.344-.163-1.82-.349a3.676 3.676 0 0 1-1.33-.865 3.677 3.677 0 0 1-.864-1.328c-.186-.477-.312-1.023-.349-1.82-.036-.8-.045-1.056-.045-3.093s.009-2.292.045-3.092c.037-.798.163-1.344.349-1.82.191-.494.448-.912.865-1.33a3.677 3.677 0 0 1 1.328-.864c.477-.186 1.023-.312 1.82-.349Zm3.096 3.607a3.851 3.851 0 1 0 0 7.703 3.851 3.851 0 0 0 0-7.703Zm0 6.351a2.5 2.5 0 1 1 0-5 2.5 2.5 0 0 1 0 5Zm4.003-5.605a.9.9 0 1 0 0-1.8.9.9 0 0 0 0 1.8Z" clip-rule="evenodd"/></svg>