<svg xmlns="http://www.w3.org/2000/svg" width="30" height="30" fill="none"><path fill="#096FFA" fill-rule="evenodd" d="M27.5 15c0 6.903-5.596 12.5-12.5 12.5S2.5 21.903 2.5 15C2.5 8.096 8.096 2.5 15 2.5S27.5 8.096 27.5 15ZM11.734 8.927c0 .779-.592 1.408-1.519 1.408-.89 0-1.483-.63-1.465-1.408-.018-.816.575-1.427 1.483-1.427.909 0 1.483.611 1.501 1.427Zm-2.91 11.584v-9.063h2.818v9.063H8.825Zm5.001-9.062c.038.797.075 1.76.075 2.892h.001v6.172h2.817v-5.227a2 2 0 0 1 .111-.705c.185-.518.648-1.056 1.427-1.056 1.02 0 1.427.797 1.427 1.965v5.023H22.5v-5.376c0-2.668-1.39-3.891-3.243-3.891-1.502 0-2.428.87-2.8 1.445h-.055l-.13-1.242h-2.447Z" clip-rule="evenodd"/></svg>