<svg xmlns="http://www.w3.org/2000/svg" width="15" height="18" fill="none"><path fill="#000" d="M9.612.44c-.8-.838-2.092-.388-2.431.59-.28.806-.644 1.771-.998 2.482-1.06 2.126-1.678 3.336-3.384 4.85a2.84 2.84 0 0 1-.841.49c-1.13.446-2.19 1.615-1.913 3.004l.353 1.765a2.5 2.5 0 0 0 1.794 1.922l5.6 1.527a4.5 4.5 0 0 0 5.61-3.536l.685-3.762a3.002 3.002 0 0 0-2.952-3.537h-.883l.01-.052c.08-.408.176-.97.24-1.583.065-.61.1-1.284.049-1.912-.05-.617-.184-1.25-.504-1.73A4.234 4.234 0 0 0 9.612.44Z"/></svg>