<svg xmlns="http://www.w3.org/2000/svg" width="30" height="30" fill="none"><path fill="#096FFA" fill-rule="evenodd" d="M15 27.5c6.904 0 12.5-5.597 12.5-12.5 0-6.904-5.596-12.5-12.5-12.5S2.5 8.096 2.5 15c0 6.903 5.596 12.5 12.5 12.5Zm5.733-16.823a6.144 6.144 0 0 0 1.767-.484 6.265 6.265 0 0 1-1.536 1.594c.006.131.009.264.009.398 0 4.066-3.096 8.755-8.756 8.755A8.712 8.712 0 0 1 7.5 19.557a6.176 6.176 0 0 0 4.556-1.274 3.081 3.081 0 0 1-2.875-2.137 3.073 3.073 0 0 0 1.39-.052 3.081 3.081 0 0 1-2.468-3.019v-.038c.415.23.89.369 1.394.385a3.074 3.074 0 0 1-1.369-2.562c0-.563.152-1.092.417-1.546a8.735 8.735 0 0 0 6.343 3.215 3.077 3.077 0 0 1 5.244-2.807c.7-.138 1.36-.394 1.954-.747a3.085 3.085 0 0 1-1.353 1.703Z" clip-rule="evenodd"/></svg>