<svg width="30" height="30" viewBox="0 0 30 30" fill="none" xmlns="http://www.w3.org/2000/svg">
<path fill-rule="evenodd" clip-rule="evenodd" d="M15 27.4999C21.9036 27.4999 27.5 21.9035 27.5 14.9999C27.5 8.09636 21.9036 2.49992 15 2.49992C8.09644 2.49992 2.5 8.09636 2.5 14.9999C2.5 21.9035 8.09644 27.4999 15 27.4999ZM17.0752 10.4624C17.4061 10.4624 17.9323 10.5206 18.3219 10.5986L18.6721 8.39763C17.9126 8.2418 17.3282 8.12492 16.5298 8.12492C14.2317 8.12492 13.3165 9.21576 13.3165 11.1632V12.585H11.875V14.8835H13.3165V21.8749H16.121V14.8835H18.1656L18.3609 12.585H16.121V11.4753C16.121 10.852 16.1792 10.4624 17.0752 10.4624Z" fill="#096FFA"/>
</svg>
