<svg width="30" height="30" viewBox="0 0 30 30" fill="none" xmlns="http://www.w3.org/2000/svg">
<path fill-rule="evenodd" clip-rule="evenodd" d="M15 27.4999C21.9036 27.4999 27.5 21.9034 27.5 14.9999C27.5 8.09632 21.9036 2.49988 15 2.49988C8.09644 2.49988 2.5 8.09632 2.5 14.9999C2.5 21.9034 8.09644 27.4999 15 27.4999ZM18.0307 8.89509C17.2398 8.85901 17.0026 8.85136 15 8.85136C12.9974 8.85136 12.7602 8.85901 11.9694 8.89509C11.2381 8.92843 10.841 9.05062 10.5767 9.15333C10.2266 9.28938 9.97681 9.4519 9.71437 9.71436C9.45191 9.9768 9.28939 10.2266 9.15333 10.5767C9.05062 10.841 8.92844 11.2381 8.8951 11.9694C8.85901 12.7602 8.85136 12.9974 8.85136 15C8.85136 17.0026 8.85901 17.2398 8.8951 18.0306C8.92844 18.7619 9.05062 19.159 9.15333 19.4233C9.28939 19.7733 9.45194 20.0232 9.71437 20.2856C9.97681 20.5481 10.2266 20.7106 10.5767 20.8466C10.841 20.9494 11.2381 21.0715 11.9694 21.1049C12.7601 21.141 12.9973 21.1486 15 21.1486C17.0027 21.1486 17.2399 21.141 18.0307 21.1049C18.7619 21.0715 19.159 20.9494 19.4233 20.8466C19.7734 20.7106 20.0232 20.5481 20.2857 20.2856C20.5481 20.0232 20.7106 19.7733 20.8467 19.4233C20.9494 19.159 21.0716 18.7619 21.1049 18.0306C21.141 17.2398 21.1487 17.0026 21.1487 15C21.1487 12.9974 21.141 12.7602 21.1049 11.9694C21.0716 11.2381 20.9494 10.841 20.8467 10.5767C20.7106 10.2266 20.5481 9.9768 20.2857 9.71433C20.0232 9.4519 19.7734 9.28938 19.4233 9.15333C19.159 9.05062 18.7619 8.92843 18.0307 8.89509ZM11.9078 7.54515C12.7077 7.50865 12.9631 7.50001 15 7.50001C17.0369 7.50001 17.2923 7.50865 18.0923 7.54515C18.8905 7.58156 19.4357 7.70835 19.9128 7.89374C20.406 8.0854 20.8242 8.34185 21.2412 8.7588C21.6582 9.17577 21.9146 9.59403 22.1063 10.0872C22.2917 10.5643 22.4185 11.1095 22.4549 11.9078C22.4914 12.7077 22.5 12.9631 22.5 15C22.5 17.0369 22.4914 17.2923 22.4549 18.0922C22.4185 18.8905 22.2917 19.4357 22.1063 19.9128C21.9146 20.4059 21.6582 20.8242 21.2412 21.2412C20.8242 21.6581 20.406 21.9146 19.9128 22.1062C19.4357 22.2916 18.8905 22.4184 18.0923 22.4548C17.2923 22.4913 17.0369 22.5 15 22.5C12.9631 22.5 12.7077 22.4913 11.9078 22.4548C11.1095 22.4184 10.5643 22.2916 10.0872 22.1062C9.59404 21.9146 9.17578 21.6581 8.7588 21.2412C8.34186 20.8242 8.08541 20.4059 7.89377 19.9128C7.70835 19.4357 7.58156 18.8905 7.54515 18.0922C7.50865 17.2923 7.50001 17.0369 7.50001 15C7.50001 12.9631 7.50865 12.7077 7.54515 11.9078C7.58156 11.1095 7.70835 10.5643 7.89377 10.0872C8.08541 9.59403 8.34186 9.17577 8.7588 8.7588C9.17578 8.34185 9.59404 8.0854 10.0872 7.89374C10.5643 7.70835 11.1095 7.58156 11.9078 7.54515ZM15.0035 11.1521C12.8764 11.1521 11.1521 12.8764 11.1521 15.0034C11.1521 17.1305 12.8764 18.8548 15.0035 18.8548C17.1305 18.8548 18.8548 17.1305 18.8548 15.0034C18.8548 12.8764 17.1305 11.1521 15.0035 11.1521ZM15.0035 17.5034C13.6228 17.5034 12.5035 16.3841 12.5035 15.0034C12.5035 13.6227 13.6228 12.5034 15.0035 12.5034C16.3842 12.5034 17.5035 13.6227 17.5035 15.0034C17.5035 16.3841 16.3842 17.5034 15.0035 17.5034ZM19.0067 11.8976C19.5038 11.8976 19.9067 11.4947 19.9067 10.9976C19.9067 10.5006 19.5038 10.0976 19.0067 10.0976C18.5097 10.0976 18.1067 10.5006 18.1067 10.9976C18.1067 11.4947 18.5097 11.8976 19.0067 11.8976Z" fill="#096FFA"/>
</svg>
