<svg width="30" height="30" viewBox="0 0 30 30" fill="none" xmlns="http://www.w3.org/2000/svg">
<path fill-rule="evenodd" clip-rule="evenodd" d="M27.5 14.9999C27.5 21.9034 21.9036 27.4999 15 27.4999C8.09644 27.4999 2.5 21.9034 2.5 14.9999C2.5 8.09632 8.09644 2.49988 15 2.49988C21.9036 2.49988 27.5 8.09632 27.5 14.9999ZM11.7342 8.92743C11.7342 9.70561 11.1417 10.3354 10.2151 10.3354C9.3246 10.3354 8.73208 9.70561 8.75041 8.92743C8.73208 8.11143 9.32458 7.5 10.2328 7.5C11.1417 7.5 11.7165 8.11143 11.7342 8.92743ZM8.82491 20.5113V11.4476H11.642V20.5113H8.82491ZM13.8253 11.449C13.8626 12.2461 13.8998 13.2099 13.8998 14.3405H13.901V20.5133H16.718V15.286C16.718 15.0259 16.7547 14.7669 16.8292 14.5812C17.0143 14.0626 17.4773 13.5251 18.2561 13.5251C19.2755 13.5251 19.6829 14.3216 19.6829 15.49V20.5133H22.5V15.137C22.5 12.469 21.1098 11.2456 19.2566 11.2456C17.7552 11.2456 16.8286 12.116 16.4579 12.6908H16.4023L16.2722 11.449H13.8253Z" fill="#096FFA"/>
</svg>
