<svg width="30" height="30" viewBox="0 0 30 30" fill="none" xmlns="http://www.w3.org/2000/svg">
<path fill-rule="evenodd" clip-rule="evenodd" d="M15 27.4999C21.9036 27.4999 27.5 21.9034 27.5 14.9999C27.5 8.09632 21.9036 2.49988 15 2.49988C8.09644 2.49988 2.5 8.09632 2.5 14.9999C2.5 21.9034 8.09644 27.4999 15 27.4999ZM20.7326 10.6775C21.3551 10.603 21.9485 10.438 22.5 10.193C22.0875 10.81 21.5656 11.352 20.9636 11.7869C20.9701 11.9184 20.9726 12.0514 20.9726 12.1849C20.9726 16.2511 17.8773 20.9403 12.2172 20.9403C10.4793 20.9403 8.86191 20.4303 7.5 19.5574C7.74048 19.5864 7.98547 19.6009 8.23445 19.6009C9.67635 19.6009 11.0033 19.1084 12.0562 18.2835C10.7098 18.2585 9.57286 17.3685 9.18139 16.1461C9.36937 16.1821 9.56236 16.2016 9.76085 16.2016C10.0413 16.2016 10.3133 16.1636 10.5713 16.0936C9.16439 15.8102 8.10296 14.5667 8.10296 13.0753V13.0368C8.51843 13.2673 8.9924 13.4058 9.49737 13.4218C8.67092 12.8699 8.12846 11.9279 8.12846 10.8605C8.12846 10.2965 8.27995 9.76805 8.54493 9.31358C10.0628 11.1755 12.3302 12.4009 14.888 12.5289C14.8355 12.3034 14.808 12.0684 14.808 11.8274C14.808 10.128 16.1859 8.75012 17.8853 8.75012C18.7697 8.75012 19.5702 9.1241 20.1317 9.72206C20.8321 9.58357 21.4916 9.32808 22.0855 8.97511C21.856 9.69356 21.3681 10.2965 20.7326 10.6775Z" fill="#096FFA"/>
</svg>
