<svg width="41" height="29" viewBox="0 0 41 29" fill="none" xmlns="http://www.w3.org/2000/svg">
<path id="Vector" d="M25.0097 10.1526L24.0097 10.1542L1.0163 10.1911L1.01659 10.3689L1.01813 11.3259L1.0277 17.2887L1.02961 18.4971L24.0231 18.4602L25.0231 18.4586L25.0247 19.4586L25.0247 19.4713L25.0247 19.4839L25.0247 19.4965L25.0247 19.5089L25.0248 19.5213L25.0248 19.5336L25.0248 19.5458L25.0248 19.558L25.0248 19.57L25.0249 19.582L25.0249 19.594L25.0249 19.6058L25.0249 19.6176L25.0249 19.6293L25.0249 19.6409L25.025 19.6525L25.025 19.664L25.025 19.6754L25.025 19.6867L25.025 19.698L25.0251 19.7092L25.0251 19.7203L25.0251 19.7313L25.0251 19.7423L25.0251 19.7532L25.0251 19.764L25.0252 19.7748L25.0252 19.7855L25.0252 19.7961L25.0252 19.8067L25.0252 19.8171L25.0252 19.8276L25.0253 19.8379L25.0253 19.8482L25.0253 19.8584L25.0253 19.8685L25.0253 19.8786L25.0253 19.8886L25.0254 19.8985L25.0254 19.9084L25.0254 19.9182L25.0254 19.9279L25.0254 19.9376L25.0254 19.9472L25.0255 19.9567L25.0255 19.9662L25.0255 19.9756L25.0255 19.9849L25.0255 19.9942L25.0255 20.0034L25.0255 20.0125L25.0256 20.0216L25.0256 20.0306L25.0256 20.0396L25.0256 20.0485L25.0256 20.0573L25.0256 20.0661L25.0256 20.0748L25.0257 20.0834L25.0257 20.092L25.0257 20.1005L25.0257 20.1089L25.0257 20.1173L25.0257 20.1256L25.0257 20.1339L25.0258 20.1421L25.0258 20.1503L25.0258 20.1583L25.0258 20.1664L25.0258 20.1743L25.0258 20.1822L25.0258 20.1901L25.0258 20.1979L25.0259 20.2056L25.0259 20.2133L25.0259 20.2209L25.0259 20.2285L25.0259 20.236L25.0259 20.2434L25.0259 20.2508L25.0259 20.2581L25.0259 20.2654L25.026 20.2726L25.026 20.2798L25.026 20.2869L25.026 20.2939L25.026 20.3009L25.026 20.3078L25.026 20.3147L25.026 20.3215L25.0261 20.3283L25.0261 20.335L25.0261 20.3417L25.0261 20.3483L25.0261 20.3549L25.0261 20.3614L25.0261 20.3679L25.0261 20.3743L25.0261 20.3806L25.0261 20.3869L25.0262 20.3932L25.0262 20.3994L25.0262 20.4055L25.0262 20.4116L25.0262 20.4176L25.0262 20.4236L25.0262 20.4296L25.0262 20.4355L25.0262 20.4413L25.0262 20.4471L25.0263 20.4529L25.0263 20.4586L25.0263 20.4642L25.0263 20.4698L25.0263 20.4754L25.0263 20.4809L25.0263 20.4863L25.0263 20.4918L25.0263 20.4971L25.0263 20.5024L25.0263 20.5077L25.0263 20.5129L25.0264 20.5181L25.0264 20.5233L25.0264 20.5284L25.0264 20.5334L25.0264 20.5384L25.0264 20.5434L25.0264 20.5483L25.0264 20.5531L25.0264 20.558L25.0264 20.5627L25.0264 20.5675L25.0264 20.5722L25.0264 20.5768L25.0265 20.5814L25.0265 20.586L25.0265 20.5905L25.0265 20.595L25.0265 20.5995L25.0265 20.6039L25.0265 20.6082L25.0265 20.6125L25.0265 20.6168L25.0265 20.6211L25.0265 20.6253L25.0265 20.6294L25.0265 20.6335L25.0265 20.6376L25.0266 20.6417L25.0266 20.6457L25.0266 20.6496L25.0266 20.6536L25.0266 20.6575L25.0266 20.6613L25.0266 20.6651L25.0266 20.6689L25.0266 20.6726L25.0266 20.6764L25.0266 20.68L25.0266 20.6837L25.0266 20.6873L25.0266 20.6908L25.0266 20.6943L25.0266 20.6978L25.0266 20.7013L25.0267 20.7047L25.0267 20.7081L25.0267 20.7115L25.0267 20.7148L25.0267 20.7181L25.0267 20.7213L25.0267 20.7246L25.0267 20.7277L25.0267 20.7309L25.0267 20.734L25.0267 20.7371L25.0267 20.7402L25.0267 20.7432L25.0267 20.7462L25.0267 20.7492L25.0267 20.7521L25.0267 20.755L25.0267 20.7579L25.0267 20.7608L25.0267 20.7636L25.0268 20.7664L25.0268 20.7691L25.0268 20.7719L25.0268 20.7746L25.0268 20.7773L25.0268 20.7799L25.0268 20.7825L25.0268 20.7851L25.0268 20.7877L25.0268 20.7902L25.0268 20.7928L25.0268 20.7952L25.0268 20.7977L25.0268 20.8001L25.0268 20.8026L25.0268 20.8049L25.0268 20.8073L25.0268 20.8096L25.0268 20.8119L25.0268 20.8142L25.0268 20.8165L25.0268 20.8187L25.0268 20.821L25.0268 20.8231L25.0268 20.8253L25.0269 20.8275L25.0269 20.8296L25.0269 20.8317L25.0269 20.8338L25.0269 20.8358L25.0269 20.8379L25.0269 20.8399L25.0269 20.8419L25.0269 20.8439L25.0269 20.8458L25.0269 20.8477L25.0269 20.8497L25.0269 20.8516L25.0269 20.8534L25.0269 20.8553L25.0269 20.8571L25.0269 20.8589L25.0269 20.8608L25.0269 20.8625L25.0269 20.8643L25.0269 20.8661L25.0269 20.8678L25.0269 20.8695L25.0269 20.8712L25.0269 20.8729L25.0269 20.8745L25.0269 20.8762L25.0269 20.8778L25.0269 20.8794L25.0269 20.881L25.0269 20.8826L25.0269 20.8842L25.0269 20.8858L25.0269 20.8873L25.027 20.8888L25.027 20.8904L25.027 20.8919L25.027 20.8934L25.027 20.8948L25.027 20.8963L25.027 20.8978L25.027 20.8992L25.027 20.9006L25.027 20.9021L25.027 20.9035L25.027 20.9049L25.027 20.9062L25.027 20.9076L25.027 20.909L25.027 20.9103L25.027 20.9117L25.027 20.913L25.027 20.9144L25.027 20.9157L25.027 20.917L25.027 20.9183L25.027 20.9196L25.027 20.9209L25.027 20.9221L25.027 20.9234L25.027 20.9247L25.027 20.9259L25.027 20.9272L25.027 20.9284L25.027 20.9297L25.027 20.9309L25.027 20.9321L25.027 20.9333L25.027 20.9346L25.027 20.9358L25.027 20.937L25.027 20.9382L25.027 20.9394L25.027 20.9406L25.027 20.9418L25.027 20.943L25.027 20.9441L25.027 20.9453L25.027 20.9465L25.027 20.9477L25.027 20.9489L25.027 20.95L25.0271 20.9512L25.0271 20.9524L25.0271 20.9536L25.0271 20.9547L25.0271 20.9559L25.0271 20.9571L25.0271 20.9583L25.0271 20.9594L25.0271 20.9606L25.0271 20.9618L25.0271 20.9629L25.0271 20.9641L25.0271 20.9653L25.0271 20.9665L25.0271 20.9677L25.0271 20.9689L25.0271 20.97L25.0271 20.9712L25.0271 20.9724L25.0271 20.9736L25.0271 20.9748L25.0271 20.976L25.0271 20.9772L25.0271 20.9785L25.0271 20.9797L25.0271 20.9809L25.0271 20.9821L25.0271 20.9834L25.0271 20.9846L25.0271 20.9859L25.0271 20.9871L25.0271 20.9884L25.0271 20.9896L25.0271 20.9909L25.0271 20.9922L25.0271 20.9935L25.0271 20.9948L25.0271 20.9961L25.0271 20.9974L25.0271 20.9987L25.0271 21.0001L25.0271 21.0014L25.0271 21.0028L25.0271 21.0041L25.0271 21.0055L25.0271 21.0069L25.0271 21.0083L25.0271 21.0097L25.0271 21.0111L25.0271 21.0125L25.0272 21.014L25.0272 21.0154L25.0272 21.0169L25.0272 21.0184L25.0272 21.0198L25.0272 21.0213L25.0272 21.0229L25.0272 21.0244L25.0272 21.0259L25.0272 21.0275L25.0272 21.0291L25.0272 21.0306L25.0272 21.0322L25.0272 21.0339L25.0272 21.0355L25.0272 21.0371L25.0272 21.0388L25.0272 21.0405L25.0272 21.0422L25.0272 21.0439L25.0272 21.0456L25.0272 21.0473L25.0272 21.0491L25.0272 21.0509L25.0272 21.0527L25.0272 21.0545L25.0272 21.0563L25.0272 21.0582L25.0272 21.06L25.0272 21.0619L25.0272 21.0638L25.0272 21.0658L25.0272 21.0677L25.0272 21.0697L25.0272 21.0717L25.0272 21.0737L25.0272 21.0757L25.0273 21.0778L25.0273 21.0799L25.0273 21.0819L25.0273 21.0841L25.0273 21.0862L25.0273 21.0884L25.0273 21.0906L25.0273 21.0928L25.0273 21.095L25.0273 21.0973L25.0273 21.0995L25.0273 21.1018L25.0273 21.1042L25.0273 21.1065L25.0273 21.1089L25.0273 21.1113L25.0273 21.1137L25.0273 21.1162L25.0273 21.1187L25.0273 21.1212L25.0273 21.1237L25.0273 21.1263L25.0273 21.1288L25.0273 21.1315L25.0273 21.1341L25.0273 21.1368L25.0274 21.1395L25.0274 21.1422L25.0274 21.1449L25.0274 21.1477L25.0274 21.1505L25.0274 21.1534L25.0274 21.1563L25.0274 21.1592L25.0274 21.1621L25.0274 21.165L25.0274 21.168L25.0274 21.1711L25.0274 21.1741L25.0274 21.1772L25.0274 21.1803L25.0274 21.1835L25.0274 21.1866L25.0274 21.1899L25.0274 21.1931L25.0274 21.1964L25.0274 21.1997L25.0275 21.203L25.0275 21.2064L25.0275 21.2098L25.0275 21.2133L25.0275 21.2168L25.0275 21.2203L25.0275 21.2238L25.0275 21.2274L25.0275 21.2311L25.0275 21.2347L25.0275 21.2384L25.0275 21.2421L25.0275 21.2459L25.0275 21.2497L25.0275 21.2536L25.0275 21.2574L25.0275 21.2613L25.0276 21.2653L25.0276 21.2693L25.0276 21.2733L25.0276 21.2774L25.0276 21.2815L25.0276 21.2857L25.0276 21.2898L25.0276 21.2941L25.0276 21.2983L25.0276 21.3026L25.0276 21.307L25.0276 21.3114L25.0276 21.3158L25.0276 21.3203L25.0276 21.3248L25.0277 21.3294L25.0277 21.334L25.0277 21.3386L25.0277 21.3433L25.0277 21.348L25.0277 21.3528L25.0277 21.3576L25.0277 21.3624L25.0277 21.3673L25.0277 21.3723L25.0277 21.3773L25.0277 21.3823L25.0278 21.3874L25.0278 21.3925L25.0278 21.3977L25.0278 21.4029L25.0278 21.4081L25.0278 21.4134L25.0278 21.4188L25.0278 21.4242L25.0278 21.4296L25.0278 21.4351L25.0278 21.4407L25.0278 21.4463L25.0279 21.4519L25.0279 21.4576L25.0279 21.4633L25.0279 21.4691L25.0279 21.4749L25.0279 21.4808L25.0279 21.4867L25.0279 21.4927L25.0279 21.4987L25.0279 21.5048L25.0279 21.511L25.028 21.5171L25.028 21.5234L25.028 21.5297L25.028 21.536L25.028 21.5424L25.028 21.5488L25.028 21.5553L25.028 21.5619L25.028 21.5685L25.0281 21.5751L25.0281 21.5818L25.0281 21.5886L25.0281 21.5954L25.0281 21.6023L25.0281 21.6092L25.0281 21.6162L25.0281 21.6232L25.0281 21.6303L25.0342 25.4214L25.0097 10.1526ZM25.0097 10.1526L25.0081 9.15258L25.0081 9.14226L25.0081 9.13199L25.0081 9.12178L25.0081 9.11162L25.008 9.10152L25.008 9.09148L25.008 9.08149L25.008 9.07155L25.008 9.06167L25.008 9.05185L25.0079 9.04208L25.0079 9.03236L25.0079 9.0227L25.0079 9.01309L25.0079 9.00354L25.0079 8.99404L25.0078 8.98459L25.0078 8.9752L25.0078 8.96586L25.0078 8.95657L25.0078 8.94733L25.0078 8.93815L25.0078 8.92902L25.0077 8.91994L25.0077 8.91091L25.0077 8.90193L25.0077 8.89301L25.0077 8.88413L25.0077 8.87531L25.0077 8.86654L25.0076 8.85782L25.0076 8.84914L25.0076 8.84052L25.0076 8.83195L25.0076 8.82343L25.0076 8.81496L25.0076 8.80654L25.0075 8.79816L25.0075 8.78984L25.0075 8.78156L25.0075 8.77334L25.0075 8.76516L25.0075 8.75703L25.0075 8.74895L25.0075 8.74091L25.0074 8.73293L25.0074 8.72499L25.0074 8.7171L25.0074 8.70925L25.0074 8.70145L25.0074 8.6937L25.0074 8.686L25.0074 8.67834L25.0073 8.67072L25.0073 8.66316L25.0073 8.65564L25.0073 8.64816L25.0073 8.64073L25.0073 8.63335L25.0073 8.62601L25.0073 8.61871L25.0072 8.61146L25.0072 8.60425L25.0072 8.59709L25.0072 8.58997L25.0072 8.5829L25.0072 8.57586L25.0072 8.56888L25.0072 8.56193L25.0072 8.55503L25.0071 8.54817L25.0071 8.54135L25.0071 8.53458L25.0071 8.52785L25.0071 8.52116L25.0071 8.51451L25.0071 8.5079L25.0071 8.50134L25.0071 8.49481L25.0071 8.48833L25.007 8.48188L25.007 8.47548L25.007 8.46912L25.007 8.4628L25.007 8.45652L25.007 8.45028L25.007 8.44407L25.007 8.43791L25.007 8.43179L25.007 8.4257L25.0069 8.41966L25.0069 8.41365L25.0069 8.40768L25.0069 8.40175L25.0069 8.39586L25.0069 8.39L25.0069 8.38419L25.0069 8.37841L25.0069 8.37266L25.0069 8.36696L25.0068 8.36129L25.0068 8.35566L25.0068 8.35006L25.0068 8.34451L25.0068 8.33898L25.0068 8.3335L25.0068 8.32805L25.0068 8.32263L25.0068 8.31725L25.0068 8.3119L25.0068 8.30659L25.0068 8.30132L25.0067 8.29608L25.0067 8.29087L25.0067 8.2857L25.0067 8.28056L25.0067 8.27545L25.0067 8.27038L25.0067 8.26534L25.0067 8.26034L25.0067 8.25537L25.0067 8.25043L25.0067 8.24552L25.0067 8.24065L25.0066 8.2358L25.0066 8.23099L25.0066 8.22621L25.0066 8.22147L25.0066 8.21675L25.0066 8.21207L25.0066 8.20741L25.0066 8.20279L25.0066 8.1982L25.0066 8.19364L25.0066 8.18911L25.0066 8.18461L25.0066 8.18013L25.0065 8.17569L25.0065 8.17128L25.0065 8.1669L25.0065 8.16254L25.0065 8.15822L25.0065 8.15392L25.0065 8.14965L25.0065 8.14541L25.0065 8.1412L25.0065 8.13702L25.0065 8.13286L25.0065 8.12873L25.0065 8.12463L25.0065 8.12055L25.0065 8.1165L25.0064 8.11248L25.0064 8.10849L25.0064 8.10452L25.0064 8.10058L25.0064 8.09666L25.0064 8.09277L25.0064 8.08891L25.0064 8.08507L25.0064 8.08125L25.0064 8.07746L25.0064 8.0737L25.0064 8.06996L25.0064 8.06624L25.0064 8.06255L25.0064 8.05888L25.0064 8.05523L25.0064 8.05161L25.0063 8.04802L25.0063 8.04444L25.0063 8.04089L25.0063 8.03736L25.0063 8.03386L25.0063 8.03037L25.0063 8.02691L25.0063 8.02347L25.0063 8.02005L25.0063 8.01666L25.0063 8.01328L25.0063 8.00993L25.0063 8.0066L25.0063 8.00329L25.0063 7.99999L25.0063 7.99672L25.0063 7.99347L25.0063 7.99024L25.0062 7.98703L25.0062 7.98384L25.0062 7.98067L25.0062 7.97752L25.0062 7.97438L25.0062 7.97127L25.0062 7.96817L25.0062 7.9651L25.0062 7.96204L25.0062 7.959L25.0062 7.95597L25.0062 7.95297L25.0062 7.94998L25.0062 7.94701L25.0062 7.94406L25.0062 7.94112L25.0062 7.9382L25.0062 7.9353L25.0062 7.93241L25.0062 7.92954L25.0061 7.92668L25.0061 7.92384L25.0061 7.92102L25.0061 7.91821L25.0061 7.91542L25.0061 7.91264L25.0061 7.90987L25.0061 7.90712L25.0061 7.90439L25.0061 7.90167L25.0061 7.89896L25.0061 7.89627L25.0061 7.89359L25.0061 7.89092L25.0061 7.88827L25.0061 7.88563L25.0061 7.883L25.0061 7.88039L25.0061 7.87779L25.0061 7.8752L25.0061 7.87262L25.0061 7.87005L25.0061 7.8675L25.0061 7.86495L25.006 7.86242L25.006 7.8599L25.006 7.85739L25.006 7.85489L25.006 7.8524L25.006 7.84992L25.006 7.84746L25.006 7.845L25.006 7.84255L25.006 7.84011L25.006 7.83768L25.006 7.83525L25.006 7.83284L25.006 7.83044L25.006 7.82804L25.006 7.82566L25.006 7.82328L25.006 7.8209L25.006 7.81854L25.006 7.81618L25.006 7.81384L25.006 7.81149L25.006 7.80916L25.006 7.80683L25.006 7.80451L25.0059 7.80219L25.0059 7.79988L25.0059 7.79758L25.0059 7.79528L25.0059 7.79299L25.0059 7.79071L25.0059 7.78842L25.0059 7.78615L25.0059 7.78388L25.0059 7.78161L25.0059 7.77935L25.0059 7.77709L25.0059 7.77483L25.0059 7.77258L25.0059 7.77033L25.0059 7.76809L25.0059 7.76585L25.0059 7.76361L25.0059 7.76138L25.0059 7.75914L25.0059 7.75691L25.0059 7.75469L25.0059 7.75246L25.0059 7.75024L25.0059 7.74801L25.0059 7.74579L25.0059 7.74357L25.0059 7.74135L25.0058 7.73914L25.0058 7.73692L25.0058 7.7347L25.0058 7.73249L25.0058 7.73027L25.0058 7.72805L25.0058 7.72584L25.0058 7.72362L25.0058 7.7214L25.0058 7.71918L25.0058 7.71696L25.0058 7.71474L25.0058 7.71252L25.0058 7.71029L25.0058 7.70806L25.0058 7.70584L25.0058 7.7036L25.0058 7.70137L25.0058 7.69913L25.0058 7.6969L25.0058 7.69465L25.0058 7.69241L25.0058 7.69016L25.0058 7.68791L25.0058 7.68565L25.0058 7.68339L25.0058 7.68112L25.0058 7.67885L25.0057 7.67658L25.0057 7.6743L25.0057 7.67202L25.0057 7.66973L25.0057 7.66743L25.0057 7.66513L25.0057 7.66283L25.0057 7.66052L25.0057 7.6582L25.0057 7.65587L25.0057 7.65354L25.0057 7.6512L25.0057 7.64886L25.0057 7.64651L25.0057 7.64415L25.0057 7.64178L25.0057 7.63941L25.0057 7.63702L25.0057 7.63463L25.0057 7.63223L25.0057 7.62982L25.0057 7.62741L25.0057 7.62498L25.0057 7.62255L25.0057 7.6201L25.0057 7.61765L25.0056 7.61519L25.0056 7.61271L25.0056 7.61023L25.0056 7.60773L25.0056 7.60523L25.0056 7.60271L25.0056 7.60019L25.0056 7.59765L25.0056 7.5951L25.0056 7.59254L25.0056 7.58997L25.0056 7.58739L25.0056 7.58479L25.0056 7.58218L25.0056 7.57956L25.0056 7.57693L25.0056 7.57429L25.0056 7.57163L25.0056 7.56895L25.0056 7.56627L25.0056 7.56357L25.0056 7.56086L25.0056 7.55813L25.0056 7.55539L25.0055 7.55263L25.0055 7.54986L25.0055 7.54707L25.0055 7.54427L25.0055 7.54146L25.0055 7.53863L25.0055 7.53578L25.0055 7.53292L25.0055 7.53004L25.0055 7.52714L25.0055 7.52423L25.0055 7.52131L25.0055 7.51836L25.0055 7.5154L25.0055 7.51242L25.0055 7.50943L25.0055 7.50641L25.0055 7.50338L25.0055 7.50033L25.0055 7.49726L25.0055 7.49418L25.0055 7.49107L25.0054 7.48795L25.0054 7.48481L25.0054 7.48165L25.0054 7.47847L25.0054 7.47527L25.0054 7.47205L25.0054 7.46881L25.0054 7.46555L25.0054 7.46227L25.0054 7.45897L25.0054 7.45565L25.0054 7.4523L25.0054 7.44894L25.0054 7.44556L25.0054 7.44215L25.0054 7.43872L25.0054 7.43527L25.0054 7.4318L25.0053 7.42831L25.0053 7.42479L25.0053 7.42125L25.0053 7.41769L25.0053 7.4141L25.0053 7.4105L25.0053 7.40686L25.0053 7.40321L25.0053 7.39953L25.0053 7.39583L25.0053 7.3921L25.0053 7.38835L25.0053 7.38457L25.0053 7.38077L25.0053 7.37694L25.0053 7.37309L25.0053 7.36921L25.0052 7.36531L25.0052 7.36138L25.0052 7.35743L25.0052 7.35345L25.0052 7.34944L25.0052 7.34541L25.0052 7.34135L25.0052 7.33726L25.0052 7.33315L25.0052 7.32901L25.0052 7.32484L25.0052 7.32064L25.0052 7.31641L25.0052 7.31216L25.0052 7.30788L25.0051 7.30357L25.0051 7.29923L25.0051 7.29486L25.0051 7.29047L25.0051 7.28604L25.0051 7.28158L25.0051 7.2771L25.0051 7.27258L25.0051 7.26804L25.0051 7.26346L25.0051 7.25886L25.0051 7.25422L25.0051 7.24955L25.0051 7.24485L25.005 7.24012L25.005 7.23536L25.005 7.23057L25.005 7.22574L25.005 7.22089L25.005 7.216L25.005 7.21108L25.005 7.20612L25.005 7.20113L25.005 7.19611L25.005 7.19106L25.005 7.18597L25.005 7.18085L25.0049 7.1757L25.0049 7.17051L25.0049 7.16529L25.0049 7.16003L25.0049 7.15474L25.0049 7.14941L25.0049 7.14405L25.0049 7.13865L25.0049 7.13322L25.0049 7.12775L25.0049 7.12225L25.0048 7.11671L25.0048 7.11114L25.0048 7.10552L25.0048 7.09988L25.0048 7.09419L25.0048 7.08847L25.0048 7.08271L25.0048 7.07691L25.0048 7.07108L25.0048 7.06521L25.0048 7.0593L25.0047 7.05335L25.0047 7.04736L25.0047 7.04134L25.0047 7.03527L25.0047 7.02917L25.0047 7.02303L25.0047 7.01685L25.0047 7.01063L25.0047 7.00437L25.0047 6.99807L25.0046 6.99173L25.0046 6.98535L25.0046 6.97893L25.0046 6.97246L25.0046 6.96596L25.0046 6.95942L25.0046 6.95283L25.0046 6.94621L25.0046 6.93954L25.0046 6.93283L25.0045 6.92608L25.0045 6.91928L25.0045 6.91245L25.0045 6.90557L25.0045 6.89865L25.0045 6.89168L25.0045 6.88467L25.0045 6.87762L25.0045 6.87053L24.9984 3.07937L24.9984 3.0684L24.9983 3.05749L24.9983 3.04663L24.9983 3.03584L24.9983 3.0251L24.9983 3.01442L24.9982 3.00379L24.9982 2.99322L24.9982 2.98271L24.9982 2.97225L24.9982 2.96185L24.9982 2.9515L24.9981 2.94121L24.9981 2.93098L24.9981 2.9208L24.9981 2.91067L24.9981 2.9006L24.9981 2.89059L24.9981 2.88062L24.998 2.87072L24.998 2.86086L24.998 2.85106L24.998 2.84131L24.998 2.83162L24.998 2.82197L24.9979 2.81238L24.9979 2.80285L24.9979 2.79336L24.9979 2.78393L24.9979 2.77454L24.9979 2.76521L24.9979 2.75593L24.9978 2.7467L24.9978 2.73752L24.9978 2.7284L24.9978 2.71932L24.9978 2.71029L24.9978 2.70131L24.9978 2.69239L24.9977 2.68351L24.9977 2.67468L24.9977 2.6659L24.9977 2.65716L24.9977 2.64848L24.9977 2.63985L24.9977 2.63126L24.9976 2.62272L24.9976 2.61423L24.9976 2.60578L24.9976 2.59738L24.9976 2.58903L24.9976 2.58073L24.9976 2.57247L24.9975 2.56426L24.9975 2.55609L24.9975 2.54797L24.9975 2.5399L24.9975 2.53187L24.9975 2.52388L24.9975 2.51594L24.9975 2.50805L24.9974 2.5002L24.9974 2.49239L24.9974 2.48463L24.9974 2.47691L24.9974 2.46924L24.9974 2.4616L24.9974 2.45402L24.9974 2.44647L24.9973 2.43897L24.9973 2.4315L24.9973 2.42409L24.9973 2.41671L24.9973 2.40937L24.9973 2.40208L24.9973 2.39483L24.9973 2.38761L24.9972 2.38044L24.9972 2.37331L24.9972 2.36622L24.9972 2.35917L24.9972 2.35216L24.9972 2.34519L24.9972 2.33826L24.9972 2.33137L24.9972 2.32452L24.9971 2.3177L24.9971 2.31093L24.9971 2.30419L24.9971 2.29749L24.9971 2.29083L24.9971 2.2842L24.9971 2.27762L24.9971 2.27107L24.9971 2.26456L24.9971 2.26439M25.0097 10.1526L24.9971 2.26439M24.9971 2.26439L39.2654 15.0192L25.0375 27.4922L25.0375 27.4766L25.0375 27.4605L25.0375 27.4445L25.0374 27.4286L25.0374 27.4128L25.0374 27.3972L25.0374 27.3817L25.0373 27.3663L25.0373 27.3511L25.0373 27.336L25.0373 27.321L25.0372 27.3061L25.0372 27.2913L25.0372 27.2767L25.0372 27.2622L25.0372 27.2478L25.0371 27.2335L25.0371 27.2194L25.0371 27.2053L25.0371 27.1914L25.037 27.1776L25.037 27.164L25.037 27.1504L25.037 27.137L25.037 27.1237L25.0369 27.1105L25.0369 27.0974L25.0369 27.0844L25.0369 27.0716L25.0369 27.0588L25.0368 27.0462L25.0368 27.0337L25.0368 27.0213L25.0368 27.009L25.0368 26.9968L25.0367 26.9848L25.0367 26.9728L25.0367 26.961L25.0367 26.9492L25.0367 26.9376L25.0366 26.9261L25.0366 26.9147L25.0366 26.9034L25.0366 26.8922L25.0366 26.8811L25.0365 26.8701L25.0365 26.8593L25.0365 26.8485L25.0365 26.8378L25.0365 26.8273L25.0365 26.8168L25.0364 26.8065L25.0364 26.7962L25.0364 26.7861L25.0364 26.776L25.0364 26.7661L25.0364 26.7563L25.0363 26.7465L25.0363 26.7369L25.0363 26.7274L25.0363 26.7179L25.0363 26.7086L25.0363 26.6993L25.0363 26.6902L25.0362 26.6811L25.0362 26.6722L25.0362 26.6633L25.0362 26.6546L25.0362 26.6459L25.0362 26.6373L25.0362 26.6288L25.0361 26.6205L25.0361 26.6122L25.0361 26.604L25.0361 26.5959L25.0361 26.5879L25.0361 26.5799L25.0361 26.5721L25.0361 26.5643L25.036 26.5567L25.036 26.5491L25.036 26.5416L25.036 26.5343L25.036 26.527L25.036 26.5197L25.036 26.5126L25.036 26.5056L25.036 26.4986L25.0359 26.4917L25.0359 26.4849L25.0359 26.4782L25.0359 26.4716L25.0359 26.4651L25.0359 26.4586L25.0359 26.4523L25.0359 26.446L25.0359 26.4397L25.0358 26.4336L25.0358 26.4276L25.0358 26.4216L25.0358 26.4157L25.0358 26.4099L25.0358 26.4041L25.0358 26.3985L25.0358 26.3929L25.0358 26.3874L25.0358 26.382L25.0358 26.3766L25.0357 26.3713L25.0357 26.3661L25.0357 26.361L25.0357 26.3559L25.0357 26.3509L25.0357 26.346L25.0357 26.3412L25.0357 26.3364L25.0357 26.3317L25.0357 26.3271L25.0357 26.3225L25.0357 26.318L25.0357 26.3136L25.0356 26.3093L25.0356 26.305L25.0356 26.3008L25.0356 26.2966L25.0356 26.2925L25.0356 26.2885L25.0356 26.2846L25.0356 26.2807L25.0356 26.2768L25.0356 26.2731L25.0356 26.2694L25.0356 26.2658L25.0356 26.2622L25.0356 26.2587L25.0356 26.2552L25.0356 26.2518L25.0356 26.2485L25.0355 26.2452L25.0355 26.242L25.0355 26.2389L25.0355 26.2358L25.0355 26.2328L25.0355 26.2298L25.0355 26.2269L25.0355 26.224L25.0355 26.2212L25.0355 26.2184L25.0355 26.2157L25.0355 26.2131L25.0355 26.2105L25.0355 26.208L25.0355 26.2055L25.0355 26.203L25.0355 26.2007L25.0355 26.1983L25.0355 26.1961L25.0355 26.1938L25.0355 26.1917L25.0355 26.1895L25.0355 26.1875L25.0354 26.1854L25.0354 26.1834L25.0354 26.1815L25.0354 26.1796L25.0354 26.1778L25.0354 26.176L25.0354 26.1742L25.0354 26.1725L25.0354 26.1708L25.0354 26.1692L25.0354 26.1677L25.0354 26.1661L25.0354 26.1646L25.0354 26.1642M24.9971 2.26439L25.0354 26.1642M25.0354 26.1642L25.0354 26.1632L25.0354 26.1618L25.0354 26.1604L25.0354 26.1591L25.0354 26.1578L25.0354 26.1565L25.0354 26.1553L25.0354 26.1542L25.0354 26.153L25.0354 26.1519L25.0354 26.1509L25.0354 26.1498L25.0354 26.1489L25.0354 26.1479L25.0354 26.147L25.0354 26.1461L25.0354 26.1453L25.0354 26.1444L25.0354 26.1443M25.0354 26.1642L25.0354 26.1443M25.0354 26.1443L25.0354 26.1443L25.0354 26.1443M25.0354 26.1443L25.0354 26.1443M25.0354 26.1443L25.0354 26.1442M25.0354 26.1443L25.0354 26.1442M25.0354 26.1442L25.0354 26.1442M25.0354 26.1442L25.0354 26.1442M25.0354 26.1442L25.0354 26.1441M25.0354 26.1442L25.0354 26.1441M25.0354 26.1441L25.0354 26.144M25.0354 26.1441L25.0354 26.144M25.0354 26.144L25.0354 26.1439M25.0354 26.144L25.0354 26.1439M25.0354 26.1439L25.0354 26.1439M25.0354 26.1439L25.0354 26.1439M25.0354 26.1439L25.0354 26.1438M25.0354 26.1439L25.0354 26.1438M25.0354 26.1438L25.0354 26.1437M25.0354 26.1438L25.0354 26.1437M25.0354 26.1437L25.0354 26.1437M25.0354 26.1437L25.0354 26.1437M25.0354 26.1437L25.0354 26.1436M25.0354 26.1437L25.0354 26.1436M25.0354 26.1436L25.0354 26.1435M25.0354 26.1436L25.0354 26.1435M25.0354 26.1435L25.0354 26.1435M25.0354 26.1435L25.0354 26.1435M25.0354 26.1435L25.0354 26.1434M25.0354 26.1435L25.0354 26.1434M25.0354 26.1434L25.0354 26.1433M25.0354 26.1434L25.0354 26.1433M25.0354 26.1433L25.0354 26.1432M25.0354 26.1433L25.0354 26.1432M25.0354 26.1432L25.0354 26.1432M25.0354 26.1432L25.0354 26.1432M25.0354 26.1432L25.0354 26.143M25.0354 26.1432L25.0354 26.143M25.0354 26.143L25.0354 26.1429M25.0354 26.143L25.0354 26.1429M25.0354 26.1429L25.0354 26.1429M25.0354 26.1429L25.0354 26.1429M25.0354 26.1429L25.0354 26.1428M25.0354 26.1429L25.0354 26.1428M25.0354 26.1428L25.0354 26.1427M25.0354 26.1428L25.0354 26.1427M25.0354 26.1427L25.0354 26.1426M25.0354 26.1427L25.0354 26.1426M25.0354 26.1426L25.0354 26.1424M25.0354 26.1426L25.0354 26.1424M25.0354 26.1424L25.0354 26.1424M25.0354 26.1424L25.0354 26.1424M25.0354 26.1424L25.0354 26.1422M25.0354 26.1424L25.0354 26.1422M25.0354 26.1422L25.0354 26.1422M25.0354 26.1422L25.0354 26.1422M25.0354 26.1422L25.0354 26.1421M25.0354 26.1422L25.0354 26.1421M25.0354 26.1421L25.0354 26.142M25.0354 26.1421L25.0354 26.142M25.0354 26.142L25.0354 26.1418M25.0354 26.142L25.0354 26.1418M25.0354 26.1418L25.0354 26.1418M25.0354 26.1418L25.0354 26.1418M25.0354 26.1418L25.0354 26.1416M25.0354 26.1418L25.0354 26.1416M25.0354 26.1416L25.0354 26.1415M25.0354 26.1416L25.0354 26.1415M25.0354 26.1415L25.0354 26.1414M25.0354 26.1415L25.0354 26.1414M25.0354 26.1414L25.0354 26.1413M25.0354 26.1414L25.0354 26.1413M25.0354 26.1413L25.0354 26.1411M25.0354 26.1413L25.0354 26.1411M25.0354 26.1411L25.0354 26.1411M25.0354 26.1411L25.0354 26.1411M25.0354 26.1411L25.0354 26.1409M25.0354 26.1411L25.0354 26.1409M25.0354 26.1409L25.0354 26.1408M25.0354 26.1409L25.0354 26.1408M25.0354 26.1408L25.0354 26.1407M25.0354 26.1408L25.0354 26.1407M25.0354 26.1407L25.0354 26.1406M25.0354 26.1407L25.0354 26.1406M25.0354 26.1406L25.0354 26.1404M25.0354 26.1406L25.0354 26.1404M25.0354 26.1404L25.0354 26.1403M25.0354 26.1404L25.0354 26.1403M25.0354 26.1403L25.0354 26.1402M25.0354 26.1403L25.0354 26.1402M25.0354 26.1402L25.0354 26.1401M25.0354 26.1402L25.0354 26.1401M25.0354 26.1401L25.0354 26.1398M25.0354 26.1401L25.0354 26.1398M25.0354 26.1398L25.0354 26.1398M25.0354 26.1398L25.0354 26.1398M25.0354 26.1398L25.0354 26.1396M25.0354 26.1398L25.0354 26.1396M25.0354 26.1396L25.0354 26.1396M25.0354 26.1396L25.0354 26.1396M25.0354 26.1396L25.0354 26.1393M25.0354 26.1396L25.0354 26.1393M25.0354 26.1393L25.0354 26.1391M25.0354 26.1393L25.0354 26.1391M25.0354 26.1391L25.0354 26.139M25.0354 26.1391L25.0354 26.139M25.0354 26.139L25.0354 26.1388M25.0354 26.139L25.0354 26.1388M25.0354 26.1388L25.0354 26.1388M25.0354 26.1388L25.0354 26.1388M25.0354 26.1388L25.0354 26.1385M25.0354 26.1388L25.0354 26.1385M25.0354 26.1385L25.0354 26.1385M25.0354 26.1385L25.0354 26.1385M25.0354 26.1385L25.0354 26.1383M25.0354 26.1385L25.0354 26.1383M25.0354 26.1383L25.0354 26.1383M25.0354 26.1383L25.0354 26.1383M25.0354 26.1383L25.0354 26.138M25.0354 26.1383L25.0354 26.138M25.0354 26.138L25.0354 26.138M25.0354 26.138L25.0354 26.138M25.0354 26.138L25.0354 26.1377M25.0354 26.138L25.0354 26.1377M25.0354 26.1377L25.0354 26.1375M25.0354 26.1377L25.0354 26.1375M25.0354 26.1375L25.0354 26.1375M25.0354 26.1375L25.0354 26.1375M25.0354 26.1375L25.0354 26.1372M25.0354 26.1375L25.0354 26.1372M25.0354 26.1372L25.0354 26.1371M25.0354 26.1372L25.0354 26.1371M25.0354 26.1371L25.0354 26.137M25.0354 26.1371L25.0354 26.137M25.0354 26.137L25.0354 26.137M25.0354 26.137L25.0354 26.137M25.0354 26.137L25.0354 26.1367M25.0354 26.137L25.0354 26.1367M25.0354 26.1367L25.0354 26.1366M25.0354 26.1367L25.0354 26.1366M25.0354 26.1366L25.0354 26.1365M25.0354 26.1366L25.0354 26.1365M25.0354 26.1365L25.0354 26.1365M25.0354 26.1365L25.0354 26.1365M25.0354 26.1365L25.0354 26.1362M25.0354 26.1365L25.0354 26.1362M25.0354 26.1362L25.0354 26.136M25.0354 26.1362L25.0354 26.136M25.0354 26.136L25.0354 26.1359M25.0354 26.136L25.0354 26.1359M25.0354 26.1359L25.0354 26.1358M25.0354 26.1359L25.0354 26.1358M25.0354 26.1358L25.0354 26.1357M25.0354 26.1358L25.0354 26.1357M25.0354 26.1357L25.0354 26.1355M25.0354 26.1357L25.0354 26.1355M25.0354 26.1355L25.0354 26.1355M25.0354 26.1355L25.0354 26.1355M25.0354 26.1355L25.0354 26.1353M25.0354 26.1355L25.0354 26.1353M25.0354 26.1353L25.0354 26.1352M25.0354 26.1353L25.0354 26.1352M25.0354 26.1352L25.0354 26.1351M25.0354 26.1352L25.0354 26.1351M25.0354 26.1351L25.0354 26.1351M25.0354 26.1351L25.0354 26.1351M25.0354 26.1351L25.0354 26.1348M25.0354 26.1351L25.0354 26.1348M25.0354 26.1348L25.0354 26.1346M25.0354 26.1348L25.0354 26.1346M25.0354 26.1346L25.0354 26.1346M25.0354 26.1346L25.0354 26.1346M25.0354 26.1346L25.0354 26.1345M25.0354 26.1346L25.0354 26.1345M25.0354 26.1345L25.0354 26.1344M25.0354 26.1345L25.0354 26.1344M25.0354 26.1344L25.0354 26.1343M25.0354 26.1344L25.0354 26.1343M25.0354 26.1343L25.0354 26.1343M25.0354 26.1343L25.0354 26.1343M25.0354 26.1343L25.0354 26.1341M25.0354 26.1343L25.0354 26.1341M25.0354 26.1341L25.0354 26.1339M25.0354 26.1341L25.0354 26.1339M25.0354 26.1339L25.0354 26.1339M25.0354 26.1339L25.0354 26.1339M25.0354 26.1339L25.0354 26.1338M25.0354 26.1339L25.0354 26.1338M25.0354 26.1338L25.0354 26.1337M25.0354 26.1338L25.0354 26.1337M25.0354 26.1337L25.0354 26.1336M25.0354 26.1337L25.0354 26.1336M25.0354 26.1336L25.0354 26.1335M25.0354 26.1336L25.0354 26.1335M25.0354 26.1335L25.0354 26.1335M25.0354 26.1335L25.0354 26.1335M25.0354 26.1335L25.0354 26.1333M25.0354 26.1335L25.0354 26.1333M25.0354 26.1333L25.0354 26.1332M25.0354 26.1333L25.0354 26.1332M25.0354 26.1332L25.0354 26.1332M25.0354 26.1332L25.0354 26.1332M25.0354 26.1332L25.0354 26.1331M25.0354 26.1332L25.0354 26.1331M25.0354 26.1331L25.0354 26.1331M25.0354 26.1331L25.0354 26.1331M25.0354 26.1331L25.0354 26.133M25.0354 26.1331L25.0354 26.133M25.0354 26.133L25.0354 26.133M25.0354 26.133L25.0354 26.133M25.0354 26.133L25.0354 26.133M25.0354 26.133L25.0354 26.133M25.0354 26.133L25.0354 26.1329M25.0354 26.133L25.0354 26.1329M25.0354 26.1329L25.0354 26.1329M25.0354 26.1329L25.0354 26.1329M25.0354 26.1329L25.0354 26.1329M25.0354 26.1329L25.0354 26.1329M25.0354 26.1329L25.0354 26.1329M25.0354 26.1329L25.0354 26.1329M25.0354 26.1329L25.0354 26.1328M25.0354 26.1329L25.0354 26.1328M25.0354 26.1328L25.0354 26.1322M25.0354 26.1328L25.0354 26.1322M25.0354 26.1322L25.0354 26.1313M25.0354 26.1322L25.0354 26.1313M25.0354 26.1313L25.0354 26.1305M25.0354 26.1313L25.0354 26.1305M25.0354 26.1305L25.0354 26.1295M25.0354 26.1305L25.0354 26.1295M25.0354 26.1295L25.0354 26.1286M25.0354 26.1295L25.0354 26.1286M25.0354 26.1286L25.0354 26.1276M25.0354 26.1286L25.0354 26.1276M25.0354 26.1276L25.0354 26.1266M25.0354 26.1276L25.0354 26.1266M25.0354 26.1266L25.0354 26.1256M25.0354 26.1266L25.0354 26.1256M25.0354 26.1256L25.0354 26.1245M25.0354 26.1256L25.0354 26.1245M25.0354 26.1245L25.0353 26.1234M25.0354 26.1245L25.0353 26.1234M25.0353 26.1234L25.0353 26.1222M25.0353 26.1234L25.0353 26.1222M25.0353 26.1222L25.0353 26.121M25.0353 26.1222L25.0353 26.121M25.0353 26.121L25.0353 26.1198M25.0353 26.121L25.0353 26.1198M25.0353 26.1198L25.0353 26.1185M25.0353 26.1198L25.0353 26.1185M25.0353 26.1185L25.0353 26.1172M25.0353 26.1185L25.0353 26.1172M25.0353 26.1172L25.0353 26.1158M25.0353 26.1172L25.0353 26.1158M25.0353 26.1158L25.0353 26.1144M25.0353 26.1158L25.0353 26.1144M25.0353 26.1144L25.0353 26.113M25.0353 26.1144L25.0353 26.113M25.0353 26.113L25.0353 26.1115M25.0353 26.113L25.0353 26.1115M25.0353 26.1115L25.0353 26.11M25.0353 26.1115L25.0353 26.11M25.0353 26.11L25.0353 26.1084M25.0353 26.11L25.0353 26.1084M25.0353 26.1084L25.0353 26.1068M25.0353 26.1084L25.0353 26.1068M25.0353 26.1068L25.0353 26.1052M25.0353 26.1068L25.0353 26.1052M25.0353 26.1052L25.0353 26.1035M25.0353 26.1052L25.0353 26.1035M25.0353 26.1035L25.0353 26.1018M25.0353 26.1035L25.0353 26.1018M25.0353 26.1018L25.0353 26.1M25.0353 26.1018L25.0353 26.1M25.0353 26.1L25.0353 26.0981M25.0353 26.1L25.0353 26.0981M25.0353 26.0981L25.0353 26.0963M25.0353 26.0981L25.0353 26.0963M25.0353 26.0963L25.0353 26.0944M25.0353 26.0963L25.0353 26.0944M25.0353 26.0944L25.0353 26.0924M25.0353 26.0944L25.0353 26.0924M25.0353 26.0924L25.0353 26.0904M25.0353 26.0924L25.0353 26.0904M25.0353 26.0904L25.0353 26.0883M25.0353 26.0904L25.0353 26.0883M25.0353 26.0883L25.0353 26.0862M25.0353 26.0883L25.0353 26.0862M25.0353 26.0862L25.0353 26.084M25.0353 26.0862L25.0353 26.084M25.0353 26.084L25.0353 26.0818M25.0353 26.084L25.0353 26.0818M25.0353 26.0818L25.0353 26.0796M25.0353 26.0818L25.0353 26.0796M25.0353 26.0796L25.0353 26.0772M25.0353 26.0796L25.0353 26.0772M25.0353 26.0772L25.0353 26.0749M25.0353 26.0772L25.0353 26.0749M25.0353 26.0749L25.0353 26.0725M25.0353 26.0749L25.0353 26.0725M25.0353 26.0725L25.0353 26.07M25.0353 26.0725L25.0353 26.07M25.0353 26.07L25.0353 26.0675M25.0353 26.07L25.0353 26.0675M25.0353 26.0675L25.0353 26.0649M25.0353 26.0675L25.0353 26.0649M25.0353 26.0649L25.0353 26.0623M25.0353 26.0649L25.0353 26.0623M25.0353 26.0623L25.0352 26.0596M25.0353 26.0623L25.0352 26.0596M25.0352 26.0596L25.0352 26.0569M25.0352 26.0596L25.0352 26.0569M25.0352 26.0569L25.0352 26.0541M25.0352 26.0569L25.0352 26.0541M25.0352 26.0541L25.0352 26.0512M25.0352 26.0541L25.0352 26.0512M25.0352 26.0512L25.0352 26.0483M25.0352 26.0512L25.0352 26.0483M25.0352 26.0483L25.0352 26.0454M25.0352 26.0483L25.0352 26.0454M25.0352 26.0454L25.0352 26.0424M25.0352 26.0454L25.0352 26.0424M25.0352 26.0424L25.0352 26.0393M25.0352 26.0424L25.0352 26.0393M25.0352 26.0393L25.0352 26.0362M25.0352 26.0393L25.0352 26.0362M25.0352 26.0362L25.0352 26.033M25.0352 26.0362L25.0352 26.033M25.0352 26.033L25.0352 26.0297M25.0352 26.033L25.0352 26.0297M25.0352 26.0297L25.0352 26.0264M25.0352 26.0297L25.0352 26.0264M25.0352 26.0264L25.0352 26.023M25.0352 26.0264L25.0352 26.023M25.0352 26.023L25.0352 26.0196M25.0352 26.023L25.0352 26.0196M25.0352 26.0196L25.0352 26.0161M25.0352 26.0196L25.0352 26.0161M25.0352 26.0161L25.0352 26.0126M25.0352 26.0161L25.0352 26.0126M25.0352 26.0126L25.0352 26.009M25.0352 26.0126L25.0352 26.009M25.0352 26.009L25.0352 26.0053M25.0352 26.009L25.0352 26.0053M25.0352 26.0053L25.0352 26.0015M25.0352 26.0053L25.0352 26.0015M25.0352 26.0015L25.0351 25.9977M25.0352 26.0015L25.0351 25.9977M25.0351 25.9977L25.0351 25.9939M25.0351 25.9977L25.0351 25.9939M25.0351 25.9939L25.0351 25.9899M25.0351 25.9939L25.0351 25.9899M25.0351 25.9899L25.0351 25.9859M25.0351 25.9899L25.0351 25.9859M25.0351 25.9859L25.0351 25.9819M25.0351 25.9859L25.0351 25.9819M25.0351 25.9819L25.0351 25.9778M25.0351 25.9819L25.0351 25.9778M25.0351 25.9778L25.0351 25.9736M25.0351 25.9778L25.0351 25.9736M25.0351 25.9736L25.0351 25.9693M25.0351 25.9736L25.0351 25.9693M25.0351 25.9693L25.0351 25.965M25.0351 25.9693L25.0351 25.965M25.0351 25.965L25.0351 25.9606M25.0351 25.965L25.0351 25.9606M25.0351 25.9606L25.0351 25.9561M25.0351 25.9606L25.0351 25.9561M25.0351 25.9561L25.0351 25.9516M25.0351 25.9561L25.0351 25.9516M25.0351 25.9516L25.0351 25.947M25.0351 25.9516L25.0351 25.947M25.0351 25.947L25.0351 25.9423M25.0351 25.947L25.0351 25.9423M25.0351 25.9423L25.0351 25.9375M25.0351 25.9423L25.0351 25.9375M25.0351 25.9375L25.035 25.9327M25.0351 25.9375L25.035 25.9327M25.035 25.9327L25.035 25.9278M25.035 25.9327L25.035 25.9278M25.035 25.9278L25.035 25.9229M25.035 25.9278L25.035 25.9229M25.035 25.9229L25.035 25.9178L25.035 25.9229Z" fill="#FF0000" stroke="white" stroke-width="2"/>
</svg>
