<svg xmlns="http://www.w3.org/2000/svg" width="41" height="29" fill="none"><path fill="red" stroke="#fff" stroke-width="2" d="m25.01 10.153-1 .001-22.994.037v.178l.002.957.01 5.963.002 1.208 22.993-.037 1-.001.002 1v.806l.001.008v.614l.001.002v.621l.001.006v.114l.006 3.791-.024-15.268Zm0 0-.002-1v-.665l-.001-.006v-.617l-.001-.003v-.617l-.001-.005v-.369l-.007-3.792v-.814m.012 7.888-.013-7.889m0 0L39.265 15.02 25.038 27.492v-.301l-.001-.013v-.614l-.001-.007v-.392m-.039-23.9.038 23.9m0 0v-.021m0 .02v-.02m0 0v-.001m0 0v-.001m0 0v-.001m0 0v-.001m0 0v-.001m0 0v-.001m0 0v-.001m0 0v-.001m0 0v-.001m0 0v-.001m0 0v-.001m0 0v-.001m0 0v-.002m0 .001v-.002m0 .001v-.002m0 .002v-.002m0 0v-.001m0 0v-.001m0 0v-.001m0 0v-.002m0 .002v-.002m0 0v-.002m0 .001v-.002m0 .001v-.001m0 0v-.001m0 .001v-.001m0 0v-.002m0 .002v-.002m0 0v-.002m0 .001v-.001m0 0v-.002m0 .002v-.002m0 0v-.001m0 .001v-.001m0 0v-.002m0 .002v-.002m0 0v-.001m0 .002v-.002m0 0v-.002m0 .002v-.002m0 0v-.001m0 .001v-.001m0 0v-.002m0 .002v-.002m0 0v-.002m0 .002v-.002m0 0v-.001m0 .002v-.002m0 0V26.1m0 .002V26.1m0 0v-.002m0 .002v-.002m0 0v-.002m0 .002v-.002m0 0v-.002m0 .002v-.002m0 0v-.002m0 .002v-.002m0 0v-.002m0 .002v-.002m0 0v-.002m0 .002v-.002m0 0v-.002m0 .002v-.002m0 0v-.002m0 .002v-.002m0 0v-.002m0 .002v-.002m0 0v-.002m0 .002v-.002m0 0v-.003m0 .003v-.003m0 0v-.002m0 .002v-.002m0 0v-.002m0 .002v-.002m0 0v-.003m0 .003v-.003m0 0v-.003m0 .003v-.003m0 0v-.002m0 .002v-.002m0 0v-.003m0 .003v-.003m0 0v-.002m0 .002v-.002m0 0v-.003m0 .003v-.003m0 0v-.003m0 .003v-.003m0 0v-.003m0 .003v-.003m0 0v-.003m0 .003v-.003m0 0v-.003m0 .003v-.003m0 0v-.003m0 .003v-.003m0 0v-.003m0 .003v-.003m0 0v-.003m0 .003v-.003m0 0v-.003m0 .003v-.003m0 0v-.003m0 .003v-.003m0 0v-.004m0 .004v-.004m0 0v-.003m0 .003v-.003m0 0v-.003m0 .003v-.003m0 0v-.004m0 .004v-.004m0 0v-.003m0 .003v-.003m0 0v-.004m0 .004v-.004m0 0v-.004m0 .004v-.004m0 0v-.003m0 .003v-.003m0 0v-.004m0 .003v-.003m0 0v-.004m0 .004v-.004m0 0v-.004m0 .004v-.004m0 0v-.004m0 .004v-.004m0 0v-.004m0 .004v-.004m0 0v-.004m0 .004v-.004m0 0v-.004m0 .004v-.004m0 0v-.005m0 .005v-.005m0 0v-.004m0 .004v-.004m0 0v-.004m0 .004v-.004m0 0v-.005m0 .005v-.005m0 0v-.004m0 .004v-.004m0 0v-.005m0 .005v-.005m0 0v-.005m0 .005v-.005m0 0v-.005m0 .005v-.005m0 0v-.004m0 .005v-.005m0 0v-.005m0 .005v-.005m0 0v-.005m0 .005v-.005m0 0v-.005.005Z"/></svg>