<svg xmlns="http://www.w3.org/2000/svg" width="15" height="18" fill="none"><path fill="#000" d="M7.315 16.2c.34.977 1.632 1.427 2.43.59.164-.17.326-.355.436-.52.32-.48.455-1.112.504-1.73a10.67 10.67 0 0 0-.048-1.911 18.714 18.714 0 0 0-.241-1.583l-.01-.052h.883a3 3 0 0 0 2.952-3.537l-.684-3.762A4.5 4.5 0 0 0 7.925.159l-5.6 1.527A2.5 2.5 0 0 0 .533 3.608L.18 5.373C-.098 6.762.964 7.93 2.093 8.378c.323.127.614.289.84.49 1.707 1.513 2.325 2.723 3.385 4.849.354.71.718 1.676.998 2.482h-.001Zm1.965-5.585v.002l.002.007.007.03a17.322 17.322 0 0 1 .353 2.079c.06.578.09 1.185.046 1.729-.044.555-.16.985-.34 1.254-.06.09-.171.222-.326.383-.2.209-.628.16-.762-.227-.283-.814-.664-1.83-1.048-2.601C6.145 11.13 5.456 9.77 3.596 8.12a3.83 3.83 0 0 0-1.136-.672c-.88-.348-1.447-1.15-1.3-1.88l.352-1.764A1.5 1.5 0 0 1 2.589 2.65l5.6-1.527a3.5 3.5 0 0 1 4.364 2.75l.684 3.762a2 2 0 0 1-1.968 2.358H9.764a.5.5 0 0 0-.484.62Z"/></svg>