<svg width="15" height="18" viewBox="0 0 15 18" fill="none" xmlns="http://www.w3.org/2000/svg">
<path id="Vector" d="M9.61157 0.439306C8.81257 -0.397694 7.51957 0.0523071 7.18057 1.02931C6.90057 1.83631 6.53657 2.80131 6.18257 3.51231C5.12257 5.63831 4.50457 6.84831 2.79857 8.36231C2.54852 8.57282 2.26401 8.73859 1.95757 8.85231C0.827565 9.29831 -0.232435 10.4673 0.0445653 11.8563L0.397565 13.6213C0.488582 14.0767 0.704634 14.4977 1.0215 14.8372C1.33837 15.1767 1.74353 15.4212 2.19157 15.5433L7.79157 17.0703C8.39314 17.2342 9.02221 17.2713 9.63887 17.1792C10.2555 17.0871 10.8463 16.8679 11.3738 16.5354C11.9013 16.2029 12.3539 15.7645 12.7029 15.2479C13.052 14.7313 13.2899 14.1477 13.4016 13.5343L14.0866 9.77231C14.1652 9.33992 14.1479 8.89553 14.0359 8.47056C13.9239 8.0456 13.7198 7.65043 13.4382 7.31302C13.1566 6.97561 12.8043 6.7042 12.4063 6.51796C12.0082 6.33173 11.574 6.23524 11.1346 6.23531H10.2516L10.2616 6.18331C10.3416 5.77531 10.4376 5.21331 10.5016 4.60031C10.5666 3.99031 10.6016 3.31631 10.5506 2.6883C10.5006 2.07131 10.3666 1.4383 10.0466 0.958305C9.93657 0.794306 9.77457 0.610306 9.61157 0.439306Z" fill="black"/>
</svg>
